<svg width="24" height="24" viewBox="0 0 24 24" fill="none" xmlns="http://www.w3.org/2000/svg">
<g clip-path="url(#clip0_27_5)">
<path d="M8.87063 5.82186C8.58938 6.54374 8.27626 8.54249 9.19313 10.4006C9.94126 11.9212 10.5731 12.1069 10.845 13.0144C10.9875 13.4887 10.8956 15.5962 10.7813 15.9825C10.6669 16.3687 10.0819 17.52 10.0556 19.3106C10.0313 20.9156 10.935 22.2281 11.235 22.5844C11.5988 23.0156 11.7338 23.1281 12.0056 23.1281C12.165 23.1281 12.8231 21.8794 12.8006 21.7894C12.7781 21.6994 12.3244 12.2812 12.3244 12.2812L13.3463 5.31561L8.87063 5.82186Z" fill="#F79226"/>
<path d="M12.2775 0.914985C11.6888 0.89811 9.22875 4.03311 8.87063 5.82186C8.5125 7.60873 9.20063 9.61123 10.0631 10.7925C10.9256 11.9737 12.0188 12.7819 12.0413 12.9169C12.0638 13.0537 12.0075 23.13 12.0075 23.13C12.0075 23.13 12.1425 23.1469 12.2569 23.0662C12.3525 22.9987 12.6638 22.6744 13.0725 21.9919C13.515 21.2531 13.9331 20.2537 13.935 19.1419C13.935 17.2781 13.1419 16.2075 13.0969 15.6394C13.0519 15.0712 13.125 13.2825 13.1925 12.9881C13.3725 12.2044 14.7075 11.4637 15.2531 10.08C15.6581 9.05061 16.1381 7.24311 14.9588 4.63311C13.7756 2.02686 12.7669 0.929985 12.2775 0.914985Z" fill="#FFC516"/>
<path d="M11.9606 2.12063C11.64 2.17876 9.19875 4.87876 9.48 7.36876C9.71625 9.45001 11.4375 11.6306 11.9269 11.4919C12.1894 11.4169 12.1144 9.12376 12.1369 6.87938C12.1594 4.51501 12.1837 2.07938 11.9606 2.12063Z" fill="#FFEDA8"/>
<path d="M14.9944 5.91563C14.7562 5.86126 14.8575 7.41751 14.2069 8.91938C13.4512 10.6594 12.3525 11.1356 12.7631 11.5294C13.1737 11.9231 14.4862 11.1844 15.0112 9.44438C15.4181 8.09251 15.4219 6.01313 14.9944 5.91563ZM17.8744 16.245C17.8744 16.245 18.4894 16.245 18.7537 16.815C19.065 17.4881 18.6544 19.425 16.4887 19.3256C14.355 19.2281 13.7456 16.95 13.7456 16.0781C13.7456 15.5156 14.8312 14.2875 14.8312 14.2875L17.3925 11.7113L18.9187 11.0869L22.9556 12.465C22.9556 12.465 20.5687 16.1963 20.4487 16.1419C20.37 16.1044 20.025 15.9956 20.0006 15.6169C19.9687 15.1256 20.3625 14.7638 20.1975 13.845C20.0981 13.29 19.4587 12.4669 18.0806 12.7781C16.7025 13.0894 15.7331 14.1956 15.57 15.5363C15.3244 17.5556 16.4156 17.6044 16.4156 17.6044C16.4156 17.6044 17.5069 17.85 17.5237 17.8013C17.5387 17.7488 17.8744 16.245 17.8744 16.245ZM3.225 16.1981C3.225 16.1981 3.84937 16.1569 3.84937 15.5663C3.84937 15.0563 3.225 13.4156 4.30875 12.9244C5.3925 12.4313 6.90187 12.8588 7.8375 14.1056C8.66062 15.2044 8.57625 17.2894 7.68937 17.5031C6.8025 17.7169 6.22875 17.2575 6.22875 17.2575L5.9175 16.1963C5.9175 16.1963 4.98375 16.4194 5.09625 17.4713C5.19562 18.39 5.92312 19.3969 7.52625 19.3256C9.38062 19.2431 10.3237 17.2425 10.2337 15.6169C10.1569 14.1881 7.65375 12.06 7.575 12.0375C7.27875 11.955 3.94687 11.1506 3.80062 11.3156C3.65437 11.4806 1.68375 14.0888 1.68375 14.0888L3.225 16.1981Z" fill="#F79226"/>
<path d="M20.3119 16.0744C20.2612 16.0369 21.3562 14.805 21.2306 13.4644C21.0994 12.0525 19.3106 11.2819 17.1431 12.2981C15.03 13.29 14.4806 16.7681 15.8794 17.4019C17.2912 18.0413 17.5537 16.2694 17.865 16.2356C18.1537 16.2056 18.9431 17.4169 17.7994 18.3038C16.2094 19.5375 13.8131 17.9456 13.7119 15.7931C13.6294 14.0531 14.1225 11.6475 16.9912 10.1606C18.7969 9.22502 20.5012 9.47065 21.6394 10.065C22.5262 10.5281 23.0494 11.3213 23.2144 12.1331C23.4694 13.3838 23.0212 14.4169 22.6237 15.0544C21.7575 16.4531 20.5762 16.2675 20.3119 16.0744ZM3.3075 16.1738C3.2025 16.2694 2.235 16.2563 1.45312 15.3206C0.451871 14.1225 0.251246 11.61 1.89562 10.38C3.79312 8.96252 6.79875 9.42565 8.8875 11.8088C10.3969 13.5319 10.5412 15.4594 9.87187 17.0438C9.45187 18.0375 8.64375 18.7256 7.57312 18.75C6.2175 18.7819 5.61937 17.9625 5.55562 17.235C5.50875 16.7119 5.69062 16.2338 5.9325 16.1906C6.30562 16.1231 6.14625 17.685 7.68937 17.5031C9.03375 17.3456 9.95437 14.8931 7.55812 12.8081C5.13187 10.6988 2.94562 11.9381 2.71687 13.5131C2.46375 15.2531 3.50437 15.9938 3.3075 16.1738Z" fill="#FFC516"/>
<path d="M14.4206 14.1713C14.5575 14.2575 14.9587 13.4063 15.5531 12.7425C16.2581 11.955 16.9387 11.6231 17.7037 11.2331C19.3125 10.4119 20.3137 11.0194 20.3306 10.3631C20.3437 9.82126 18.5081 9.80439 17.13 10.5431C14.8312 11.775 14.2387 14.0569 14.4206 14.1713Z" fill="#FFEDA8"/>
<path d="M8.15064 14.6475C7.80564 14.6306 7.59189 14.9587 7.59189 15.3206C7.59189 15.7143 7.90314 16.0106 8.39626 16.0256C8.88939 16.0425 15.1425 16.0256 15.5531 16.0256C15.9638 16.0256 16.1269 15.6487 16.1438 15.3206C16.1606 14.9925 15.8981 14.7131 15.57 14.6962C15.2419 14.6793 8.15064 14.6475 8.15064 14.6475Z" fill="#F79226"/>
<path d="M8.21624 15.2381C8.54437 15.2381 15.2419 15.2719 15.5044 15.255C15.7669 15.2381 15.8662 15.0244 15.8494 14.8781C15.8325 14.73 15.6037 14.6812 15.3562 14.6812C15.1106 14.6812 8.33062 14.6156 8.15062 14.6475C7.97062 14.6812 7.87124 14.8125 7.88812 14.9437C7.90312 15.0731 7.98562 15.2381 8.21624 15.2381ZM1.61999 13.3706C1.86749 13.3875 2.18624 11.91 3.14624 11.2987C3.96562 10.7775 4.74562 10.7156 5.73937 10.89C6.73312 11.0644 7.24687 11.3906 7.32749 11.2369C7.45124 11.0006 5.30624 9.37686 3.05999 10.17C0.813742 10.9631 1.27312 13.3462 1.61999 13.3706Z" fill="#FFEDA8"/>
</g>
<defs>
<clipPath id="clip0_27_5">
<rect width="24" height="24" fill="white"/>
</clipPath>
</defs>
</svg>
